<?xml version="1.0" encoding="UTF-8"?>
<svg id="Layer_1" xmlns="http://www.w3.org/2000/svg" version="1.1" viewBox="0 0 976.95 260.6">
  <!-- Generator: Adobe Illustrator 30.0.0, SVG Export Plug-In . SVG Version: 2.1.1 Build 123)  -->
  <defs>
    <style>
      .st0 {
        fill: #083382;
      }
    </style>
  </defs>
  <path class="st0" d="M291.06,89.16c-.22,9.34-5.92,18.08-12.26,18.08h-25.1c-2.7-36.39-31.79-59.99-64.13-59.99-38.62,0-63.06,28.01-66.66,60.23h-16.93c-16.77,0-17.89-10.66-19.25-18.31h-14.56c3.68,19.51,10.8,28.61,29.45,30.07h-.05l-15.07,68.27h-3.63c0,14.28,11.58,25.86,25.86,25.86s25.86-11.58,25.86-25.86h-4.97l-15.03-68.05h45.39c14.09,0,21.13,18.55,21.13,30.29h13.62c3.04-19.74,8.92-28.65,30.99-28.65h35.42l-14.66,66.41h-4.3c0,14.28,11.58,25.86,25.86,25.86s25.86-11.58,25.86-25.86h-4.3l-14.68-66.5c15.15-1,30.24-10.52,29.24-31.84h-13.1ZM123.04,187.5h-29.96l14.31-68.05h1.35l14.31,68.05h0ZM213.52,107.24c-7.25,0-20.98,10.65-25.35,20.61-7.22-14.16-16.79-20.38-25.59-20.38h-19.45c1.04-35.19,20.81-52.88,42.46-52.88,23.6,0,43.91,18.15,47.49,52.64h-19.56ZM283.01,187.5h-29.96l13.96-66.41h2.04l13.96,66.41Z"/>
  <path class="st0" d="M233.56,123.03c-1.42,35.11-18.97,51.54-42.01,51.54-24.88,0-43.57-21.18-47.63-51.54h-21.13c3.35,33.78,29.96,59.09,65.58,59.09,33.53,0,60.69-22.41,64.95-59.09h-19.77.01Z"/>
  <path class="st0" d="M385.98,181.49c-3.58,0-6.95-2.78-6.95-11.92v-38.34c0-10.33-3.18-17.08-10.13-23.04-4.57-3.58-10.73-5.36-16.69-5.36-11.32,2.38-22.84,9.73-28.6,13.91-3.97,2.78-6.55,5.16-6.55,7.94,0,4.77,4.97,8.74,8.74,8.74,2.98,0,4.77-1.39,5.76-4.57,1.79-5.76,3.18-10.13,5.36-12.91,1.99-2.38,4.77-4.57,9.34-4.57,10.33,0,17.48,8.14,17.48,22.25v3.97c-4.37,3.58-19.27,8.74-31.38,12.91-10.93,3.77-16.29,10.13-16.29,19.86,0,12.71,10.13,24.43,24.23,24.43,6.16,0,15.89-7.35,23.84-12.71.99,3.58,2.18,6.36,4.77,8.94,1.99,2.18,6.36,3.77,9.34,3.77l16.88-9.93-1.99-5.56c-2.18,1.19-4.77,2.18-7.15,2.18h0ZM363.73,175.53c-3.97,3.97-11.12,7.15-16.29,7.15-6.36,0-14.3-4.77-14.3-15.29,0-7.35,4.57-11.12,12.12-14.5,4.57-1.99,14.1-6.16,18.47-8.34v30.99h0Z"/>
  <path class="st0" d="M488.87,171.56v-37.74c0-19.27-9.93-30.99-25.82-30.99-5.76,0-10.93,2.38-16.49,5.96-5.16,3.38-9.53,6.36-13.51,9.14v-15.69c-8.34,3.77-18.08,6.36-27.81,7.94v5.16c10.73,1.79,12.12,2.38,12.12,15.29v40.92c0,13.11-1.19,13.9-14.3,15.29v5.56h42.91v-5.56c-11.72-1.19-12.91-1.59-12.91-15.29v-46.48c6.16-5.56,13.91-10.33,22.05-10.33,13.11,0,18.08,9.34,18.08,23.24v32.78c0,13.51-1.19,14.9-12.71,16.09v5.56h41.12v-5.56c-11.52-1.19-12.71-1.79-12.71-15.29h-.02Z"/>
  <path class="st0" d="M557.6,102.83c-18.87,0-44.1,15.3-44.1,47.67,0,22.25,16.69,44.3,44.1,44.3,19.47,0,43.3-15.3,43.3-47.47,0-25.62-18.47-44.49-43.3-44.49h0ZM559.58,187.85c-16.29,0-27.41-18.27-27.41-43.5,0-23.04,10.93-34.76,23.04-34.76,17.48,0,27.01,18.87,27.01,42.11,0,27.21-10.33,36.15-22.64,36.15Z"/>
  <path class="st0" d="M660.89,102.83c-18.87,0-44.1,15.3-44.1,47.67,0,22.25,16.69,44.3,44.1,44.3,19.47,0,43.3-15.3,43.3-47.47,0-25.62-18.47-44.49-43.3-44.49h0ZM662.87,187.85c-16.29,0-27.41-18.27-27.41-43.5,0-23.04,10.93-34.76,23.04-34.76,17.48,0,27.01,18.87,27.01,42.11,0,27.21-10.33,36.15-22.64,36.15Z"/>
  <path class="st0" d="M802.51,171.56v-37.74c0-19.27-9.93-30.99-25.82-30.99-5.76,0-10.93,2.38-16.49,5.96-5.16,3.38-9.53,6.36-13.51,9.14v-15.69c-8.34,3.77-18.08,6.36-27.81,7.94v5.16c10.73,1.79,12.12,2.38,12.12,15.29v40.92c0,13.11-1.19,13.9-14.3,15.29v5.56h42.91v-5.56c-11.72-1.19-12.91-1.59-12.91-15.29v-46.48c6.16-5.56,13.91-10.33,22.05-10.33,13.11,0,18.08,9.34,18.08,23.24v32.78c0,13.51-1.19,14.9-12.71,16.09v5.56h41.12v-5.56c-11.52-1.19-12.71-1.79-12.71-15.29h-.02Z"/>
  <path class="st0" d="M834.19,148.83v42.78h70.59v-42.78h-70.59ZM846.5,181.07c-1.54,0-2.61-1.11-2.61-2.74,0-1.54,1.07-2.74,2.61-2.74s2.7,1.2,2.7,2.74c0,1.63-1.16,2.74-2.7,2.74ZM872.6,180.47h-19.93v-1.2c3.9-.39,4.24-.6,4.24-4.24v-17.02c0-3.64-.43-3.86-3.86-4.2v-1.2h11.49v1.2c-3.43.34-3.9.51-3.9,4.2v17.45c0,2.61.34,3.21,2.79,3.26.04,0,3.13.04,3.39.04,2.19,0,2.83-.26,3.81-1.33,1.07-1.11,1.97-2.83,2.61-4.42l1.33.34c-.26,1.33-1.54,5.79-1.97,7.12h0ZM893.94,162.81c-2.23.34-2.7.69-3.77,3.13-1.07,2.4-2.23,5.32-5.19,12.77-2.79,6.86-3.56,9.52-4.24,11.75-.26.9-.73,1.11-1.29,1.11-1.37,0-2.61-.99-2.61-2.06,0-.56.3-.94.94-1.5,1.37-1.07,2.36-2.1,2.87-3.17.9-1.8,1.54-3.3,1.76-3.86.17-.64.17-1.03-.09-1.76-1.67-4.89-3.99-10.16-5.27-13.24-.94-2.36-1.33-2.87-3.69-3.17v-1.16h8.66v1.16c-1.97.3-2.19.73-1.63,2.31l4.16,10.54c1.2-2.96,2.91-7.71,3.81-10.42.51-1.63.21-2.1-2.27-2.44v-1.16h7.84v1.16h.01Z"/>
</svg>