<svg xmlns="http://www.w3.org/2000/svg" xmlns:xlink="http://www.w3.org/1999/xlink" width="1080" zoomAndPan="magnify" viewBox="0 0 810 809.999993" height="1080" preserveAspectRatio="xMidYMid meet" version="1.0"><path fill="#810a1e" d="M 723.828125 284.589844 C 723.136719 313.953125 705.214844 341.429688 685.277344 341.429688 L 606.351562 341.429688 C 597.863281 227.023438 506.390625 152.828125 404.695312 152.828125 C 283.257812 152.828125 206.40625 240.890625 195.085938 342.183594 L 141.847656 342.183594 C 89.117188 342.183594 85.59375 308.671875 81.316406 284.621094 L 35.535156 284.621094 C 47.105469 345.957031 69.496094 374.566406 128.140625 379.15625 L 127.980469 379.15625 L 80.59375 593.785156 L 69.179688 593.785156 C 69.179688 638.679688 105.59375 675.085938 150.496094 675.085938 C 195.398438 675.085938 231.8125 638.679688 231.8125 593.785156 L 216.183594 593.785156 L 168.921875 379.847656 L 311.652344 379.847656 C 355.957031 379.847656 378.09375 438.164062 378.09375 475.074219 L 420.921875 475.074219 C 430.480469 413.015625 448.96875 385.003906 518.371094 385.003906 L 629.746094 385.003906 L 583.648438 593.785156 L 570.128906 593.785156 C 570.128906 638.679688 606.539062 675.085938 651.445312 675.085938 C 696.347656 675.085938 732.761719 638.679688 732.761719 593.785156 L 719.238281 593.785156 L 673.078125 384.71875 C 720.714844 381.578125 768.167969 351.648438 765.023438 284.621094 L 723.828125 284.621094 Z M 195.492188 593.753906 L 101.285156 593.753906 L 146.28125 379.816406 L 150.527344 379.816406 L 195.527344 593.753906 Z M 480.007812 341.429688 C 457.210938 341.429688 414.035156 374.910156 400.292969 406.222656 C 377.589844 361.707031 347.5 342.152344 319.828125 342.152344 L 258.667969 342.152344 C 261.9375 231.519531 324.101562 175.90625 392.179688 175.90625 C 466.390625 175.90625 530.253906 232.964844 541.511719 341.398438 L 480.007812 341.398438 Z M 698.515625 593.753906 L 604.308594 593.753906 L 648.203125 384.972656 L 654.621094 384.972656 Z M 698.515625 593.753906 " fill-opacity="1" fill-rule="nonzero"/><path fill="#810a1e" d="M 543.023438 391.070312 C 538.558594 501.453125 483.371094 553.105469 410.921875 553.105469 C 332.6875 553.105469 273.917969 486.519531 261.152344 391.070312 L 194.707031 391.070312 C 205.242188 497.269531 288.917969 576.839844 400.921875 576.839844 C 506.355469 576.839844 591.761719 506.386719 605.15625 391.070312 L 542.992188 391.070312 Z M 543.023438 391.070312 " fill-opacity="1" fill-rule="nonzero"/></svg>